<svg width="32" height="32" viewBox="0 0 32 32" fill="none" xmlns="http://www.w3.org/2000/svg">
<path d="M19.6901 16L31.7083 28.0182C31.8979 28.2662 31.9854 28.5433 31.9854 28.8496C31.9854 29.1559 31.8979 29.4038 31.7083 29.5934L29.5788 31.7229C29.3892 31.9125 29.1413 32 28.835 32C28.5287 32 28.2516 31.9125 28.0036 31.7229L15.9854 19.7046L3.96718 31.7229C3.71923 31.9125 3.44211 32 3.13582 32C2.82954 32 2.58159 31.9125 2.39198 31.7229L0.262534 29.5934C0.0875114 29.4038 0 29.1559 0 28.8496C0 28.5433 0.0875114 28.2662 0.277119 28.0182L12.2954 16L0.277119 3.98177C0.0875114 3.73382 0 3.4567 0 3.15041C0 2.84412 0.0875114 2.59617 0.277119 2.40656L2.40656 0.277119C2.59617 0.0875114 2.82954 0 3.15041 0C3.47129 0 3.73382 0.0875114 3.98177 0.277119L16 12.2954L28.0182 0.277119C28.2662 0.0875114 28.5433 0 28.8496 0C29.1559 0 29.4038 0.0875114 29.5934 0.277119L31.7229 2.40656C31.9125 2.59617 32 2.84412 32 3.15041C32 3.4567 31.9125 3.73382 31.7229 3.98177L19.6901 16Z" fill="black"/>
</svg>
