<svg width="26" height="26" viewBox="0 0 26 26" fill="none" xmlns="http://www.w3.org/2000/svg">
<path d="M25.548 23.7377C25.6481 23.8415 25.6943 23.9773 25.6943 24.1449C25.6943 24.3126 25.6481 24.4643 25.548 24.6001L24.4235 25.7179C24.2926 25.8536 24.1463 25.9175 23.9845 25.9175C23.8228 25.9175 23.6919 25.8536 23.5917 25.7179L17.6383 19.5938C17.5381 19.4581 17.4919 19.3223 17.4919 19.1866V18.476C16.5831 19.2824 15.5588 19.9212 14.4189 20.3763C13.2791 20.8314 12.093 21.0629 10.853 21.0629C8.99686 21.0629 7.29477 20.5919 5.74671 19.6417C4.19865 18.6996 2.97406 17.422 2.05755 15.8172C1.14874 14.2123 0.694336 12.4557 0.694336 10.5315C0.694336 8.60722 1.14874 6.84266 2.06525 5.24578C2.97406 3.6409 4.20635 2.37138 5.75441 1.42123C7.29477 0.471082 8.99686 0 10.853 0C12.7091 0 14.4112 0.471082 15.9516 1.42123C17.4996 2.36339 18.7242 3.6409 19.6407 5.24578C20.5495 6.85065 21.0116 8.61521 21.0116 10.5315C21.0116 11.817 20.7883 13.0466 20.3493 14.2283C19.9103 15.41 19.3019 16.4719 18.5163 17.4141H19.2017C19.3635 17.4141 19.4944 17.462 19.5945 17.5658L25.548 23.7377ZM10.853 18.6277C12.2547 18.6277 13.5563 18.2684 14.7578 17.5418C15.9593 16.8152 16.9143 15.8252 17.6152 14.5796C18.316 13.334 18.6626 11.9846 18.6626 10.5315C18.6626 9.07831 18.316 7.72894 17.6152 6.48336C16.9143 5.23779 15.9593 4.24772 14.7578 3.52114C13.5563 2.79455 12.247 2.42727 10.853 2.42727C9.45127 2.42727 8.14967 2.78657 6.94819 3.51315C5.74671 4.23974 4.79169 5.22981 4.09082 6.47538C3.38996 7.72095 3.04338 9.07032 3.04338 10.5235C3.04338 11.9767 3.38996 13.326 4.09082 14.5716C4.79169 15.8172 5.74671 16.8072 6.94819 17.5338C8.14967 18.2604 9.45127 18.6277 10.853 18.6277Z" fill="#9D9D9D"/>
</svg>
