<svg width="26" height="26" viewBox="0 0 26 26" fill="none" xmlns="http://www.w3.org/2000/svg">
<path d="M16.0772 12.9587L25.4664 22.6926C25.6146 22.8934 25.6829 23.1178 25.6829 23.3659C25.6829 23.614 25.6146 23.8148 25.4664 23.9684L23.8028 25.693C23.6547 25.8466 23.461 25.9175 23.2217 25.9175C22.9824 25.9175 22.7659 25.8466 22.5722 25.693L13.1829 15.9592L3.7937 25.693C3.59999 25.8466 3.38349 25.9175 3.1442 25.9175C2.90491 25.9175 2.7112 25.8466 2.56307 25.693L0.899441 23.9684C0.762704 23.8148 0.694336 23.614 0.694336 23.3659C0.694336 23.1178 0.762704 22.8934 0.910835 22.6926L10.3001 12.9587L0.910835 3.22492C0.762704 3.0241 0.694336 2.79966 0.694336 2.55158C0.694336 2.30351 0.762704 2.10269 0.910835 1.94913L2.57446 0.224445C2.72259 0.0708774 2.90491 0 3.15559 0C3.40628 0 3.61138 0.0708774 3.80509 0.224445L13.1943 9.95827L22.5836 0.224445C22.7773 0.0708774 22.9938 0 23.2331 0C23.4724 0 23.6661 0.0708774 23.8142 0.224445L25.4778 1.94913C25.626 2.10269 25.6943 2.30351 25.6943 2.55158C25.6943 2.79966 25.626 3.0241 25.4778 3.22492L16.0772 12.9587Z" fill="#9D9D9D"/>
</svg>
