<svg width="16" height="24" viewBox="0 0 16 24" fill="none" xmlns="http://www.w3.org/2000/svg">
<path d="M0.699999 8.12202C0.566666 8.0305 0.499999 7.87035 0.499999 7.7102C0.499999 7.55005 0.566666 7.38989 0.699999 7.2755L7.56667 0.205909C7.67778 0.0686375 7.81111 -3.19579e-07 7.98889 -3.2735e-07C8.16667 -3.35121e-07 8.3 0.0686375 8.41111 0.205909L15.3 7.2755C15.4333 7.36702 15.5 7.52717 15.5 7.7102C15.5 7.89323 15.4333 8.0305 15.3 8.12202L14.3 9.19733C14.1667 9.3346 14.0111 9.40324 13.8333 9.40324C13.6556 9.40324 13.5222 9.3346 13.4111 9.19733L9.34444 4.85033L9.34445 23.3594C9.34445 23.5424 9.27778 23.6797 9.16667 23.817C9.05556 23.9542 8.9 24 8.72222 24L7.27778 24C7.1 24 6.96667 23.9314 6.83333 23.817C6.7 23.7026 6.65556 23.5424 6.65556 23.3594L6.65555 4.85033L2.58889 9.19733C2.47778 9.3346 2.34444 9.40324 2.16667 9.40324C1.98889 9.40324 1.83333 9.3346 1.7 9.19733L0.699999 8.12202Z" fill="white"/>
</svg>
